<?xml version="1.0" encoding="UTF-8"?>
<svg width="20px" height="29px" viewBox="0 0 20 29" version="1.1" xmlns="http://www.w3.org/2000/svg" xmlns:xlink="http://www.w3.org/1999/xlink">
    <!-- Generator: Sketch 48.2 (47327) - http://www.bohemiancoding.com/sketch -->
    <title>icon/gas</title>
    <desc>Created with Sketch.</desc>
    <defs></defs>
    <g id="Desktop-HD" stroke="none" stroke-width="1" fill="none" fill-rule="evenodd" transform="translate(-430.000000, -334.000000)">
        <g id="gas-bill-summary" transform="translate(400.000000, 297.000000)" fill="#F6A623">
            <g id="Group" transform="translate(30.000000, 36.000000)">
                <g id="icon/gas">
                    <path d="M19.543196,19.7764228 L19.9949894,19.7339185 C19.9958245,19.7226419 20,19.6254893 20,19.6142126 C20,19.235144 19.9757819,18.8690868 19.9273456,18.5195109 C19.5732598,14.4330293 18.0099378,10.9901837 17.9431291,10.8453223 C17.857113,10.658824 17.6667084,10.5477924 17.4654474,10.5868269 C17.2683619,10.6206569 17.1155372,10.7854693 17.0929893,10.9919186 C17.0303562,11.5340649 16.6854566,13.0512069 15.8436678,13.5577884 C15.4353,13.8024048 14.947597,13.7919956 14.3496597,13.5274282 C12.0013362,12.48564 10.3553384,4.533005 11.1378346,1.92896811 C11.2355422,1.60107805 11.3474467,1.22894886 10.9783289,1.04852259 C10.7344774,0.931419 10.5190196,1.02683674 10.3294501,1.32870377 L10.2400935,1.46749322 C9.1744958,3.02280239 7.80074325,4.8010421 6.34598522,6.6833739 C4.84947179,8.62035404 3.30201679,10.6223917 2.02096121,12.4804354 C0.0141968349,15.3932788 0,19.221265 0,19.3817403 C0.00334043175,19.5092531 0,19.5586969 0,19.6142126 C0,25.3410119 4.48536473,30 9.99958245,30 C15.295837,30 19.6484196,25.7304898 19.969101,20.2517766 C19.9883085,20.1988632 20,20.1407451 20,20.0808921 L19.992484,19.7686159 L19.543196,19.7764228 Z" id="Fill-1"></path>
                </g>
            </g>
        </g>
    </g>
</svg>