<?xml version="1.0" encoding="UTF-8"?>
<svg width="20px" height="30px" viewBox="0 0 20 30" version="1.1" xmlns="http://www.w3.org/2000/svg" xmlns:xlink="http://www.w3.org/1999/xlink">
    <!-- Generator: Sketch 48.2 (47327) - http://www.bohemiancoding.com/sketch -->
    <title>icon/gas</title>
    <desc>Created with Sketch.</desc>
    <defs></defs>
    <g id="Desktop-HD" stroke="none" stroke-width="1" fill="none" fill-rule="evenodd" transform="translate(-430.000000, -333.000000)">
        <g id="gas-bill-summary" transform="translate(400.000000, 297.000000)" fill="#00DFED">
            <g id="Group" transform="translate(30.000000, 36.000000)">
                <g id="icon/elec">
                    <path d="M12.1063613,8.91423596 L19.8824675,0.72355246 C20.0014035,0.598171528 20.0333565,0.415324336 19.9632375,0.257727471 C19.8940061,0.101001306 19.7360165,0 19.5611628,0 L6.90513054,0.0278624293 C6.7240638,0.0287331302 6.56252387,0.136700044 6.4968428,0.302133217 L0.645901999,15.0039182 C0.592647077,15.1371354 0.611286299,15.286896 0.693831429,15.4053113 C0.777264141,15.5228559 0.944129564,15.5864171 1.06040281,15.5907706 L6.23145577,15.534175 L0.0370207202,29.3957336 C-0.0490747376,29.5881585 0.0192690794,29.81367 0.197673069,29.9286025 C0.271342379,29.9764911 0.355662672,30 0.439095384,30 C0.557143795,30 0.674304624,29.9521114 0.760400082,29.8615586 L19.8824675,9.63691772 C20.0014035,9.51240749 20.0333565,9.3295603 19.9632375,9.17196343 C19.8940061,9.01523727 19.7360165,8.91423596 19.5611628,8.91423596 L12.1063613,8.91423596 Z" id="Fill-3"></path>
                </g>
            </g>
        </g>
    </g>
</svg>