<?xml version="1.0" encoding="UTF-8"?>
<svg width="526px" height="498px" viewBox="0 0 526 498" version="1.1" xmlns="http://www.w3.org/2000/svg" xmlns:xlink="http://www.w3.org/1999/xlink">
    <!-- Generator: Sketch 48.2 (47327) - http://www.bohemiancoding.com/sketch -->
    <title>Artboard</title>
    <desc>Created with Sketch.</desc>
    <defs>
        <radialGradient cx="50%" cy="0%" fx="50%" fy="0%" r="82.3936819%" gradientTransform="translate(0.500000,0.000000),scale(0.363118,1.000000),rotate(90.000000),scale(1.000000,2.008246),translate(-0.500000,-0.000000)" id="radialGradient-1">
            <stop stop-color="#E2E2E2" offset="0%"></stop>
            <stop stop-color="#F5F5F5" stop-opacity="0" offset="100%"></stop>
        </radialGradient>
    </defs>
    <g id="Page-1" stroke="none" stroke-width="1" fill="none" fill-rule="evenodd">
        <g id="Artboard">
            <g id="animation/shading" transform="translate(0.000000, 307.000000)" fill="url(#radialGradient-1)">
                <rect id="Rectangle-2" x="0" y="0" width="526" height="191"></rect>
            </g>
            <g id="animation/hotwater-360px" transform="translate(78.000000, 16.000000)">
                <g id="Group-13">
                    <g id="Group-7">
                        <rect id="Rectangle-path" x="0" y="0" width="370" height="329.968847"></rect>
                        <path d="M85.9222222,311.4081 C64.5444444,311.4081 48.4083333,293.259813 44.4,271.914953 L36.2805556,228.400312 C35.15,222.625857 31.8611111,210.664486 23.5361111,210.664486 L23.5361111,204.786916 L346.463889,205.096262 L345.333333,210.664486 C337.008333,210.664486 333.616667,222.625857 332.588889,228.400312 L324.469444,271.914953 C320.461111,293.259813 304.325,311.4081 282.947222,311.4081 L85.9222222,311.4081 Z" id="Shape" fill="#F5F5F5"></path>
                        <path d="M345.436111,210.767601 L24.5638889,210.767601 C21.275,210.767601 18.5,207.983489 18.5,204.683801 C18.5,201.384112 21.275,198.6 24.5638889,198.6 L345.436111,198.6 C348.725,198.6 351.5,201.384112 351.5,204.683801 C351.5,207.983489 348.725,210.767601 345.436111,210.767601 Z" id="Shape" fill="#001CB0"></path>
                        <g id="Group" transform="translate(46.250000, 19.591900)">
                            <path d="M50.5666667,16.9109034 C49.2305556,13.7143302 47.2777778,10.9302181 44.9138889,8.55856698 C42.55,6.18691589 39.6722222,4.22772586 36.5888889,2.88722741 C33.4027778,1.54672897 30.0111111,0.824922118 26.4138889,0.824922118 C22.8166667,0.824922118 19.3222222,1.54672897 16.2388889,2.88722741 C13.0527778,4.22772586 10.2777778,6.18691589 7.91388889,8.55856698 C5.55,10.9302181 3.59722222,13.8174455 2.26111111,16.9109034 C0.925,20.1074766 0.205555556,23.5102804 0.205555556,27.1193146 L0.205555556,179.0081" id="Shape" stroke="#CCCCCC" stroke-width="6.8727" stroke-linejoin="round"></path>
                            <g transform="translate(15.416667, 11.342679)" fill-rule="nonzero">
                                <path d="M84.9972222,13.3018692 C79.4472222,-0.103115265 57.2472222,-3.60903427 35.2527778,5.46510903 C13.2583333,14.5392523 0.102777778,32.7906542 5.55,46.1956386" id="Shape" fill="#CCCCCC"></path>
                                <g transform="translate(0.000000, 1.031153)" id="Oval">
                                    <ellipse fill="#FFFFFF" transform="translate(45.190608, 28.720468) rotate(-22.500428) translate(-45.190608, -28.720468) " cx="45.1906078" cy="28.7204679" rx="42.9621959" ry="12.8897336"></ellipse>
                                    <ellipse fill="#CCCCCC" transform="translate(45.190608, 28.720468) rotate(-22.500428) translate(-45.190608, -28.720468) " cx="45.1906078" cy="28.7204679" rx="2.67228969" ry="1"></ellipse>
                                    <ellipse fill="#CCCCCC" transform="translate(47.023475, 33.157631) rotate(-22.500428) translate(-47.023475, -33.157631) " cx="47.0234747" cy="33.1576311" rx="2.67228969" ry="1"></ellipse>
                                    <ellipse fill="#CCCCCC" transform="translate(48.895572, 37.690063) rotate(-22.500428) translate(-48.895572, -37.690063) " cx="48.8955719" cy="37.6900626" rx="2.67228969" ry="1"></ellipse>
                                    <ellipse fill="#CCCCCC" transform="translate(43.318408, 24.187933) rotate(-22.500428) translate(-43.318408, -24.187933) " cx="43.3184078" cy="24.1879333" rx="2.67228969" ry="1"></ellipse>
                                    <ellipse fill="#CCCCCC" transform="translate(56.999065, 27.489550) rotate(-22.500428) translate(-56.999065, -27.489550) " cx="56.9990653" cy="27.48955" rx="2.67228969" ry="1"></ellipse>
                                    <ellipse fill="#CCCCCC" transform="translate(33.342817, 29.856118) rotate(-22.500428) translate(-33.342817, -29.856118) " cx="33.3428172" cy="29.8561175" rx="2.67228969" ry="1"></ellipse>
                                    <ellipse fill="#CCCCCC" transform="translate(60.090970, 22.525148) rotate(-22.500428) translate(-60.090970, -22.525148) " cx="60.0909703" cy="22.5251481" rx="2.67228969" ry="1"></ellipse>
                                    <ellipse fill="#CCCCCC" transform="translate(30.290245, 34.915788) rotate(-22.500428) translate(-30.290245, -34.915788) " cx="30.2902453" cy="34.9157876" rx="2.67228969" ry="1"></ellipse>
                                    <ellipse fill="#CCCCCC" transform="translate(54.442961, 21.178339) rotate(-22.500428) translate(-54.442961, -21.178339) " cx="54.4429614" cy="21.178339" rx="2.67228969" ry="1"></ellipse>
                                    <ellipse fill="#CCCCCC" transform="translate(35.938357, 36.262494) rotate(-22.500428) translate(-35.938357, -36.262494) " cx="35.9383569" cy="36.2624936" rx="2.67228969" ry="1"></ellipse>
                                    <ellipse fill="#CCCCCC" transform="translate(41.485644, 19.750873) rotate(-22.500428) translate(-41.485644, -19.750873) " cx="41.4856436" cy="19.7508731" rx="2.67228969" ry="1"></ellipse>
                                    <ellipse fill="#CCCCCC" transform="translate(63.269311, 30.267331) rotate(-22.500428) translate(-63.269311, -30.267331) " cx="63.2693114" cy="30.2673309" rx="2.67228969" ry="1"></ellipse>
                                    <ellipse fill="#CCCCCC" transform="translate(27.072674, 27.078337) rotate(-22.500428) translate(-27.072674, -27.078337) " cx="27.0726739" cy="27.0783366" rx="2.67228969" ry="1"></ellipse>
                                    <ellipse fill="#CCCCCC" transform="translate(72.814643, 22.425570) rotate(-22.500428) translate(-72.814643, -22.425570) " cx="72.8146433" cy="22.4255697" rx="2.67228969" ry="1"></ellipse>
                                    <ellipse fill="#CCCCCC" transform="translate(17.527239, 34.919995) rotate(-22.500428) translate(-17.527239, -34.919995) " cx="17.5272392" cy="34.9199947" rx="2.67228969" ry="1"></ellipse>
                                    <ellipse fill="#CCCCCC" transform="translate(74.896376, 16.369394) rotate(-22.500428) translate(-74.896376, -16.369394) " cx="74.8963764" cy="16.3693936" rx="2.67228969" ry="1"></ellipse>
                                    <ellipse fill="#CCCCCC" transform="translate(15.389883, 41.111004) rotate(-22.500428) translate(-15.389883, -41.111004) " cx="15.3898828" cy="41.1110043" rx="2.67228969" ry="1"></ellipse>
                                    <ellipse fill="#CCCCCC" transform="translate(69.109679, 13.455975) rotate(-22.500428) translate(-69.109679, -13.455975) " cx="69.1096792" cy="13.4559749" rx="2.67228969" ry="1"></ellipse>
                                    <ellipse fill="#CCCCCC" transform="translate(21.232306, 43.889693) rotate(-22.500428) translate(-21.232306, -43.889693) " cx="21.2323061" cy="43.8896926" rx="2.67228969" ry="1"></ellipse>
                                    <ellipse fill="#CCCCCC" transform="translate(56.817776, 14.822531) rotate(-22.500428) translate(-56.817776, -14.822531) " cx="56.8177756" cy="14.8225306" rx="2.67228969" ry="1"></ellipse>
                                    <ellipse fill="#CCCCCC" transform="translate(33.468484, 42.657764) rotate(-22.500428) translate(-33.468484, -42.657764) " cx="33.4684836" cy="42.6577642" rx="2.67228969" ry="1"></ellipse>
                                </g>
                            </g>
                        </g>
                        <path d="M112.541667,180.96729 C115.316667,180.96729 117.475,178.698754 117.475,176.017757 C117.475,173.233645 115.213889,171.068224 112.541667,171.068224 C109.766667,171.068224 107.608333,173.33676 107.608333,176.017757 C107.608333,178.698754 109.869444,180.96729 112.541667,180.96729 Z M73.3833333,213.345483 C75.0277778,213.345483 76.2611111,212.004984 76.2611111,210.458255 C76.2611111,208.808411 74.925,207.571028 73.3833333,207.571028 C71.7388889,207.571028 70.5055556,208.911526 70.5055556,210.458255 C70.4027778,212.004984 71.7388889,213.345483 73.3833333,213.345483 Z M125.902778,207.364798 C124.052778,207.364798 122.305556,206.746106 120.866667,205.714953 C119.838889,207.158567 118.091667,208.18972 116.138889,208.39595 C114.494444,210.664486 111.822222,212.004984 108.841667,212.004984 C104.216667,212.004984 100.413889,208.602181 99.7972222,204.168224 C97.0222222,203.961994 94.8638889,201.693458 94.8638889,198.909346 C94.8638889,198.806231 94.8638889,198.703115 94.8638889,198.6 L67.4222222,198.6 C67.8333333,199.115576 68.0388889,199.734268 68.0388889,200.456075 C68.0388889,202.105919 66.7027778,203.343302 65.1611111,203.343302 C63.5166667,203.343302 62.2833333,202.002804 62.2833333,200.456075 C62.2833333,199.734268 62.4888889,199.115576 62.9,198.6 L39.2611111,198.6 C39.6722222,194.990966 42.7555556,192.206854 46.4555556,192.206854 C47.3805556,192.206854 48.3055556,192.413084 49.1277778,192.72243 C50.4638889,191.175701 52.4166667,190.144548 54.6777778,190.144548 C55.7055556,190.144548 56.6305556,190.350779 57.4527778,190.76324 C58.3777778,184.473209 63.825,179.626791 70.4027778,179.626791 C72.2527778,179.626791 74.1027778,180.039252 75.7472222,180.761059 C77.0833333,177.667601 80.0638889,175.605296 83.5583333,175.605296 C88.0805556,175.605296 91.7805556,179.111215 92.0888889,183.648287 C93.6305556,182.204673 95.6861111,181.379751 97.9472222,181.379751 C102.366667,181.379751 106.066667,184.782555 106.375,189.113396 C108.225,187.154206 110.897222,185.813707 113.877778,185.813707 C114.391667,185.813707 114.905556,185.813707 115.419444,185.916822 C116.858333,184.370093 118.811111,183.442056 121.072222,183.442056 C125.183333,183.442056 128.575,186.741745 128.780556,190.76324 C130.322222,191.278816 131.761111,192.309969 132.788889,193.547352 C134.125,187.669782 139.469444,183.235826 145.738889,183.235826 C150.158333,183.235826 154.166667,185.401246 156.530556,188.80405 C157.352778,188.494704 158.277778,188.288474 159.202778,188.288474 C162.594444,188.288474 165.369444,190.557009 166.191667,193.753583 C166.602778,193.134891 167.013889,192.516199 167.527778,192.103738 C166.397222,190.866355 165.780556,189.113396 165.780556,187.360436 C165.780556,183.338941 168.966667,180.142368 172.975,180.142368 C175.544444,180.142368 177.702778,181.482866 179.038889,183.442056 C181.402778,181.17352 184.588889,179.729907 188.186111,179.729907 C190.036111,179.729907 191.886111,180.142368 193.530556,180.864174 C194.866667,177.770717 197.847222,175.708411 201.341667,175.708411 C205.863889,175.708411 209.563889,179.21433 209.872222,183.751402 C211.105556,182.617134 212.75,181.792212 214.497222,181.482866 C214.702778,175.08972 219.944444,169.933956 226.419444,169.933956 C230.633333,169.933956 234.333333,172.202492 236.491667,175.502181 C238.547222,175.708411 240.397222,176.636449 241.836111,177.976947 C241.322222,177.04891 241.116667,176.017757 241.116667,174.883489 C241.116667,171.17134 244.097222,168.284112 247.694444,168.284112 C248.927778,168.284112 250.161111,168.696573 251.188889,169.315265 C251.805556,168.490343 252.525,167.768536 253.45,167.25296 C252.319444,165.809346 251.6,163.953271 251.6,161.994081 C251.6,157.250779 255.402778,153.435514 260.130556,153.435514 C264.858333,153.435514 268.661111,157.250779 268.661111,161.994081 C268.661111,162.097196 268.661111,162.200312 268.661111,162.200312 C269.688889,161.890966 270.716667,161.684735 271.847222,161.684735 C272.463889,161.684735 273.080556,161.78785 273.697222,161.890966 C275.033333,157.86947 278.836111,154.879128 283.358333,154.879128 C288.908333,154.879128 293.430556,159.416199 293.430556,164.984424 C293.430556,165.809346 293.327778,166.634268 293.122222,167.356075 C295.075,167.974766 296.925,169.109034 298.363889,170.449533 C300.419444,168.284112 303.297222,166.840498 306.483333,166.840498 C312.65,166.840498 317.583333,171.790031 317.583333,177.976947 C317.583333,179.420561 317.275,180.761059 316.863889,181.998442 C317.891667,183.13271 318.611111,184.576324 318.919444,186.123053 C319.536111,186.019938 320.255556,185.916822 320.975,185.916822 C328.066667,185.916822 333.822222,191.588162 334.027778,198.703115 L323.75,198.703115 C323.236111,202.415265 320.05,205.199377 316.144444,205.199377 C314.808333,205.199377 313.677778,204.890031 312.547222,204.27134 C311.519444,206.849221 309.052778,208.705296 306.072222,208.705296 C302.269444,208.705296 299.186111,205.714953 299.083333,201.899688 C297.233333,201.590343 295.588889,200.35296 294.766667,198.6 L289.936111,198.6 C289.730556,202.209034 286.75,205.199377 283.05,205.199377 C281.097222,205.199377 279.35,204.374455 278.116667,203.137072 C276.780556,203.961994 275.238889,204.47757 273.594444,204.47757 C269.894444,204.47757 266.811111,202.002804 265.783333,198.6 L220.869444,198.6 C219.738889,201.177882 217.169444,203.033956 214.188889,203.033956 C211.208333,203.033956 208.638889,201.177882 207.508333,198.6 L203.397222,198.6 C203.397222,198.806231 203.397222,199.012461 203.397222,199.218692 C203.397222,201.487227 201.547222,203.446417 199.183333,203.446417 C198.875,203.446417 198.463889,203.446417 198.155556,203.343302 C197.025,204.890031 195.072222,206.024299 193.016667,206.024299 C189.419444,206.024299 186.541667,203.137072 186.541667,199.528037 C186.541667,199.218692 186.541667,198.909346 186.644444,198.703115 L134.536111,198.703115 C134.536111,198.806231 134.536111,198.806231 134.536111,198.909346 C134.433333,203.549533 130.630556,207.364798 125.902778,207.364798 Z M243.480556,180.657944 C243.583333,180.554829 243.686111,180.451713 243.891667,180.245483 C243.583333,180.039252 243.275,179.833022 242.966667,179.523676 C243.172222,179.936137 243.275,180.245483 243.480556,180.657944 Z M304.222222,157.766355 C307.922222,157.766355 310.8,154.776012 310.8,151.166978 C310.8,147.454829 307.819444,144.567601 304.222222,144.567601 C300.522222,144.567601 297.644444,147.557944 297.644444,151.166978 C297.644444,154.776012 300.625,157.766355 304.222222,157.766355 Z M253.347222,142.092835 C255.197222,142.092835 256.636111,140.649221 256.636111,138.793146 C256.636111,136.937072 255.197222,135.493458 253.347222,135.493458 C251.497222,135.493458 250.058333,136.937072 250.058333,138.793146 C250.058333,140.649221 251.497222,142.092835 253.347222,142.092835 Z M164.033333,169.315265 C164.033333,166.531153 161.772222,164.365732 159.1,164.365732 C156.325,164.365732 154.166667,166.634268 154.166667,169.315265 C154.166667,172.099377 156.427778,174.264798 159.1,174.264798 C161.772222,174.367913 164.033333,172.099377 164.033333,169.315265 Z" id="Shape" fill="#FFFFFF"></path>
                        <g id="Group" transform="translate(143.888889, 157.766355)">
                            <path d="M25.6944444,0.309345794 C20.35,0.309345794 16.0333333,4.64018692 16.0333333,10.0021807 C16.0333333,12.064486 16.7527778,14.4361371 18.1916667,16.0859813 C20.2472222,18.4576324 17.6777778,21.2417445 14.6972222,21.2417445 C12.2305556,21.2417445 9.45555556,19.5919003 8.11944444,18.2514019 C6.88611111,17.0140187 6.68055556,15.2610592 5.75555556,15.2610592 C4.83055556,15.2610592 3.90555556,15.982866 3.28888889,16.7046729 C-4.00833333,24.8507788 2.36388889,40.8336449 11.3055556,40.8336449 L28.1611111,40.8336449 C32.7861111,40.8336449 36.7944444,35.2654206 36.7944444,30.6252336 C36.7944444,23.4071651 29.9083333,20.5199377 29.9083333,19.9012461 C29.9083333,18.7669782 30.3194444,18.5607477 31.3472222,17.8389408 C33.8138889,16.0859813 35.3555556,14.3330218 35.3555556,10.0021807 C35.2527778,5.67133956 31.0388889,0.309345794 25.6944444,0.309345794 Z" id="Shape" fill="#FFE344"></path>
                            <path d="M31.8611111,13.4049844 C33.6083333,12.064486 35.0472222,9.17725857 34.8416667,7.3211838 C35.5611111,8.55856698 37.8222222,9.0741433 39.775,8.97102804 C40.3916667,8.97102804 41.7277778,8.55856698 41.7277778,9.48660436 C41.7277778,10.517757 41.0083333,11.8582555 39.6722222,12.5800623 C37.4111111,13.9205607 35.15,14.9517134 32.4777778,15.1579439 C31.45,15.3641745 31.0388889,14.023676 31.8611111,13.4049844 Z" id="Shape" fill="#001CB0"></path>
                            <path d="M29.1888889,9.89906542 C28.0583333,9.89906542 27.2361111,8.97102804 27.2361111,7.93987539 C27.2361111,6.90872274 28.1611111,5.98068536 29.1888889,5.98068536 C30.3194444,5.98068536 31.1416667,6.90872274 31.1416667,7.93987539 C31.1416667,8.97102804 30.3194444,9.89906542 29.1888889,9.89906542 Z" id="Shape" fill="#FFFFFF"></path>
                            <path d="M29.8055556,8.97102804 C29.1888889,8.97102804 28.7777778,8.55856698 28.7777778,7.93987539 C28.7777778,7.73364486 28.7777778,7.6305296 28.8805556,7.42429907 C28.8805556,7.73364486 29.1888889,8.04299065 29.4972222,8.04299065 C29.8055556,8.04299065 30.1138889,7.73364486 30.1138889,7.42429907 C30.1138889,7.11495327 29.9083333,6.90872274 29.7027778,6.80560748 C29.7027778,6.80560748 29.8055556,6.80560748 29.8055556,6.80560748 C30.4222222,6.80560748 30.8333333,7.3211838 30.8333333,7.83676012 C30.8333333,8.45545171 30.4222222,8.97102804 29.8055556,8.97102804 Z" id="Shape" fill="#001CB0"></path>
                            <path d="M8.94166667,23.8196262 C11.5111111,25.4694704 13.4638889,24.541433 14.9027778,24.0258567 C19.1166667,22.4791277 23.9472222,22.6853583 23.8444444,28.2535826 C23.7416667,30.8314642 20.1444444,34.646729 14.2861111,33.9249221 C10.175,33.4093458 5.13888889,29.2847352 6.57777778,24.4383178 C7.09166667,22.7884735 7.70833333,23.0978193 8.94166667,23.8196262 Z" id="Shape" fill="#001CB0"></path>
                        </g>
                        <g id="Group" transform="translate(285.722222, 303.158879)" fill="#CCCCCC">
                            <path d="M1.23333333,5.15576324 C1.33611111,5.05264798 1.33611111,4.94953271 1.43888889,4.94953271 C1.54166667,4.74330218 1.74722222,4.53707165 1.85,4.43395639 C1.95277778,4.33084112 2.05555556,4.22772586 2.15833333,4.12461059 C2.36388889,3.91838006 2.46666667,3.8152648 2.67222222,3.60903427 C2.775,3.505919 2.87777778,3.40280374 2.98055556,3.40280374 C3.18611111,3.19657321 3.39166667,3.09345794 3.7,2.88722741 C3.80277778,2.88722741 3.80277778,2.78411215 3.90555556,2.78411215 C5.85833333,1.54672897 8.325,0.618691589 10.7916667,0.515576324 C10.7916667,0.515576324 10.8944444,0.515576324 10.8944444,0.515576324 C11.2027778,0.515576324 11.5111111,0.515576324 11.8194444,0.515576324 C11.9222222,0.515576324 12.025,0.515576324 12.1277778,0.515576324 C12.1277778,0.515576324 12.1277778,0.515576324 12.2305556,0.515576324 C12.3333333,0.515576324 12.4361111,0.515576324 12.6416667,0.515576324 C12.8472222,0.515576324 13.0527778,0.515576324 13.3611111,0.515576324 C13.4638889,0.515576324 13.5666667,0.515576324 13.7722222,0.515576324 C13.875,0.515576324 14.0805556,0.515576324 14.1833333,0.618691589 C14.6972222,0.721806854 15.1083333,0.824922118 15.6222222,0.928037383 L21.5833333,25.8819315 L18.5,25.8819315 L1.13055556,6.08380062 C0.822222222,5.67133956 1.02777778,5.46510903 1.23333333,5.15576324 Z" id="Shape"></path>
                            <path d="M23.7416667,22.8915888 L13.4638889,22.8915888 C12.7444444,22.8915888 12.1277778,23.5102804 12.1277778,24.2320872 L12.1277778,25.5725857 C12.1277778,26.2943925 12.7444444,26.9130841 13.4638889,26.9130841 L23.7416667,26.9130841 C24.4611111,26.9130841 25.0777778,26.2943925 25.0777778,25.5725857 L25.0777778,24.2320872 C25.0777778,23.4071651 24.4611111,22.8915888 23.7416667,22.8915888 Z" id="Shape"></path>
                        </g>
                        <g id="Group" transform="translate(58.583333, 303.158879)" fill="#CCCCCC">
                            <path d="M24.4611111,5.15576324 C24.3583333,5.05264798 24.3583333,4.94953271 24.2555556,4.94953271 C24.1527778,4.74330218 23.9472222,4.53707165 23.8444444,4.43395639 C23.7416667,4.33084112 23.6388889,4.22772586 23.5361111,4.12461059 C23.3305556,3.91838006 23.2277778,3.8152648 23.0222222,3.60903427 C22.9194444,3.505919 22.8166667,3.40280374 22.7138889,3.40280374 C22.5083333,3.19657321 22.3027778,3.09345794 21.9944444,2.88722741 C21.8916667,2.88722741 21.8916667,2.78411215 21.7888889,2.78411215 C19.8361111,1.54672897 17.3694444,0.618691589 14.9027778,0.515576324 C14.9027778,0.515576324 14.8,0.515576324 14.8,0.515576324 C14.4916667,0.515576324 14.1833333,0.515576324 13.875,0.515576324 C13.7722222,0.515576324 13.6694444,0.515576324 13.5666667,0.515576324 C13.5666667,0.515576324 13.5666667,0.515576324 13.4638889,0.515576324 C13.3611111,0.515576324 13.2583333,0.515576324 13.0527778,0.515576324 C12.8472222,0.515576324 12.6416667,0.515576324 12.3333333,0.515576324 C12.2305556,0.515576324 12.1277778,0.515576324 11.9222222,0.515576324 C11.8194444,0.515576324 11.6138889,0.515576324 11.5111111,0.618691589 C10.9972222,0.721806854 10.5861111,0.824922118 10.0722222,0.928037383 L4.11111111,25.8819315 L7.19444444,25.8819315 L24.5638889,6.08380062 C24.8722222,5.67133956 24.6666667,5.46510903 24.4611111,5.15576324 Z" id="Shape"></path>
                            <path d="M1.95277778,22.8915888 L12.2305556,22.8915888 C12.95,22.8915888 13.5666667,23.5102804 13.5666667,24.2320872 L13.5666667,25.5725857 C13.5666667,26.2943925 12.95,26.9130841 12.2305556,26.9130841 L1.95277778,26.9130841 C1.23333333,26.9130841 0.616666667,26.2943925 0.616666667,25.5725857 L0.616666667,24.2320872 C0.616666667,23.4071651 1.23333333,22.8915888 1.95277778,22.8915888 Z" id="Shape"></path>
                        </g>
                    </g>
                </g>
            </g>
        </g>
    </g>
</svg>